<svg width="536" height="404" viewBox="0 0 536 404" fill="none" xmlns="http://www.w3.org/2000/svg">
<g clip-path="url(#clip0_67_331)">
<path d="M115.077 367.227C139.434 381.256 169.774 384.62 204.135 383.685C203.552 373.08 207.137 362.667 214.126 354.67C221.114 346.672 230.952 341.723 241.54 340.88C252.127 340.036 262.625 343.365 270.791 350.155C278.958 356.945 284.147 366.659 285.25 377.222C328.692 372.99 375.311 369.199 422.438 374.515C542.431 388.049 498.185 154.166 409.828 67.3261C321.47 -19.5141 183.86 -22.7768 102.466 60.0386C21.0734 142.854 8.1896 305.662 115.077 367.227Z" fill="#F2F2F2"/>
<path d="M287.762 404C424.629 404 535.581 386.903 535.581 365.812C535.581 344.722 424.629 327.625 287.762 327.625C150.895 327.625 39.9419 344.722 39.9419 365.812C39.9419 386.903 150.895 404 287.762 404Z" fill="#3F3D56"/>
<path d="M277.347 254.187C277.347 254.187 233.017 248.846 227.676 258.459C222.335 268.073 226.074 276.084 233.017 280.891C239.96 285.698 278.415 307.596 278.415 307.596L281.619 312.937L288.563 311.869L295.506 305.46L292.301 299.585C292.301 299.585 265.597 283.562 265.063 279.289C265.063 279.289 289.631 290.505 292.301 288.369C294.972 286.232 324.881 276.084 320.074 270.209C315.267 264.334 302.983 255.789 302.983 255.789L277.347 254.187Z" fill="#2F2E41"/>
<path opacity="0.1" d="M277.347 254.187C277.347 254.187 233.017 248.846 227.676 258.459C222.335 268.073 226.074 276.084 233.017 280.891C239.96 285.698 278.415 307.596 278.415 307.596L281.619 312.937L288.563 311.869L295.506 305.46L292.301 299.585C292.301 299.585 265.597 283.562 265.063 279.289C265.063 279.289 289.631 290.505 292.301 288.369C294.972 286.232 324.881 276.084 320.074 270.209C315.267 264.334 302.983 255.789 302.983 255.789L277.347 254.187Z" fill="black"/>
<path d="M283.222 308.13C283.222 308.13 275.21 306.528 276.813 311.869C278.415 317.21 279.483 327.892 276.813 330.562C274.142 333.232 265.597 344.983 274.142 346.051C282.688 347.119 291.767 336.437 291.767 336.437C291.767 336.437 297.642 319.346 301.915 317.744C306.188 316.141 310.46 309.732 308.324 308.13C306.188 306.528 293.369 296.38 292.301 296.914C291.233 297.448 291.767 303.323 291.767 303.323C291.767 303.323 287.494 310.266 283.222 308.13Z" fill="#2F2E41"/>
<path d="M352.387 288.102H281.353V346.318H352.387V288.102Z" fill="#00BFA6"/>
<path d="M0.418945 197.828V210.824L64.663 287.568H75.542L0.418945 197.828Z" fill="#00BFA6"/>
<path d="M0.418945 98.7561V111.751L147.6 287.568H158.478L0.418945 98.7561Z" fill="#00BFA6"/>
<path d="M232.127 387.094L243.546 393.297L447.189 352.166L452.382 342.608L232.127 387.094Z" fill="#00BFA6"/>
<path d="M0.418945 131.78V144.775L119.954 287.568H130.833L0.418945 131.78Z" fill="#00BFA6"/>
<path d="M206.579 93.8286V81.4072H196.181L206.579 93.8286Z" fill="#00BFA6"/>
<path d="M0.418945 263.877V276.872L9.3725 287.568H20.2509L0.418945 263.877Z" fill="#00BFA6"/>
<path d="M118.321 371.694L130.161 377.051L185.08 361.73L189.564 351.818L118.321 371.694Z" fill="#00BFA6"/>
<path d="M0.418945 247.365V260.36L23.1949 287.568H34.0738L0.418945 247.365Z" fill="#00BFA6"/>
<path d="M0.418945 214.341V227.336L50.8406 287.568H61.7191L0.418945 214.341Z" fill="#00BFA6"/>
<path d="M0.418945 148.292V161.287L106.132 287.568H117.01L0.418945 148.292Z" fill="#00BFA6"/>
<path d="M124.123 81.4072H113.244L206.579 192.901V179.906L124.123 81.4072Z" fill="#00BFA6"/>
<path d="M151.769 81.4072H140.89L206.579 159.877V146.882L151.769 81.4072Z" fill="#00BFA6"/>
<path d="M179.414 81.4072H168.535L206.579 126.853V113.858L179.414 81.4072Z" fill="#00BFA6"/>
<path d="M13.541 81.4072H2.6626L175.245 287.568H186.123L13.541 81.4072Z" fill="#00BFA6"/>
<path d="M27.3638 81.4072H16.4849L189.068 287.568H199.946L27.3638 81.4072Z" fill="#00BFA6"/>
<path d="M55.0093 81.4072H44.1309L206.579 275.462V262.467L55.0093 81.4072Z" fill="#00BFA6"/>
<path d="M82.6548 81.4072H71.7759L206.579 242.438V229.443L82.6548 81.4072Z" fill="#00BFA6"/>
<path d="M96.4775 81.4072H85.5991L206.579 225.926V212.931L96.4775 81.4072Z" fill="#00BFA6"/>
<path d="M288.041 147.13C288.041 147.13 288.659 149.189 285.158 151.043C281.656 152.896 280.627 159.899 284.746 161.959C288.865 164.018 290.101 166.695 288.041 168.549C285.982 170.403 282.274 175.346 287.217 176.581C292.16 177.817 292.778 180.289 291.336 181.318C289.895 182.348 294.632 179.465 294.632 179.465C294.632 179.465 295.455 184.408 299.781 183.172C304.106 181.936 316.257 158.457 310.078 155.162C303.9 151.867 288.041 147.13 288.041 147.13Z" fill="#2F2E41"/>
<path d="M282.421 194.101L262.659 207.987C262.659 207.987 247.705 192.499 247.705 183.419C247.705 174.339 239.693 157.248 235.955 164.192C232.216 171.135 240.227 187.692 240.227 187.692L255.182 222.942C255.182 222.942 263.727 224.544 268.534 220.806C273.341 217.067 286.693 209.59 286.693 209.59L282.421 194.101Z" fill="#FFB9B9"/>
<path d="M301.915 170.868C310.174 170.868 316.87 164.172 316.87 155.913C316.87 147.654 310.174 140.959 301.915 140.959C293.656 140.959 286.96 147.654 286.96 155.913C286.96 164.172 293.656 170.868 301.915 170.868Z" fill="#FFB9B9"/>
<path d="M294.171 166.328C294.171 166.328 299.512 180.215 297.375 183.419C295.239 186.624 292.568 186.624 290.432 187.692C289.364 188.226 278.148 192.499 278.148 195.703C278.199 197.762 278.749 199.778 279.75 201.578L281.353 210.658L294.705 219.203L312.33 217.067L325.682 209.59C325.682 209.59 327.819 189.828 321.944 186.624C316.069 183.419 309.125 175.942 309.66 173.271C310.194 170.601 310.728 164.192 310.728 164.192L294.171 166.328Z" fill="#FFB9B9"/>
<path d="M271.739 199.442C271.739 199.442 279.75 207.453 279.75 208.522C279.75 209.59 274.409 214.397 278.148 220.806C281.887 227.215 281.887 243.238 281.887 243.238L294.705 245.908L318.739 243.772L322.478 206.919C322.478 206.919 312.864 208.522 310.728 210.124C308.591 211.726 302.716 207.987 298.443 207.987C294.171 207.987 281.887 205.851 281.887 205.851L282.955 201.578L278.682 194.101L271.739 199.442Z" fill="#FF6584"/>
<path d="M301.915 256.323C301.915 256.323 247.972 232.289 243.699 247.777C239.426 263.266 238.892 300.653 238.892 300.653C238.892 300.653 236.222 326.289 233.017 328.96C229.812 331.63 233.017 339.642 233.017 339.642L241.028 342.312L248.506 339.108L251.71 330.562C251.71 330.562 252.779 311.335 257.051 301.721C261.324 292.107 261.324 269.675 260.79 268.607C260.79 268.607 281.62 294.244 301.915 292.641C322.211 291.039 325.148 286.499 325.148 286.499C325.148 286.499 315.268 256.323 301.915 256.323Z" fill="#2F2E41"/>
<path d="M236.221 331.63C236.221 331.63 234.085 324.153 229.278 330.028C224.471 335.903 202.573 344.983 202.039 346.051C201.505 347.119 191.892 352.994 203.108 361.005C214.324 369.017 229.278 361.005 229.278 361.005C229.278 361.005 242.096 356.733 245.301 357.267C248.506 357.801 254.915 354.596 255.449 351.926C255.983 349.255 254.721 325.779 251.88 328.17C249.04 330.562 245.835 336.971 245.835 336.971C245.835 336.971 235.153 339.642 236.221 331.63Z" fill="#2F2E41"/>
<path d="M283.756 241.902C283.756 241.902 280.818 241.635 281.353 248.579C281.353 248.579 299.779 254.187 302.983 258.993C306.188 263.8 320.074 278.221 322.211 288.369C322.211 288.369 337.699 284.63 329.154 257.925L319.107 236.142C319.107 236.142 313.131 248.312 283.756 241.902Z" fill="#2F2E41"/>
<path d="M296.327 254.883L314.466 246.976C314.466 246.976 323.012 229.351 323.012 220.806C323.115 215.889 323.494 210.981 324.147 206.106C324.55 203.04 324.199 199.922 323.122 197.023C322.045 194.124 320.276 191.532 317.969 189.473C316.083 187.823 313.965 186.624 311.796 186.624C311.796 186.624 305.387 198.374 306.455 209.056C307.523 219.737 304.853 235.76 304.853 235.76L280.719 248.677" fill="#FFB9B9"/>
<path opacity="0.1" d="M296.327 254.883L314.466 246.976C314.466 246.976 323.012 229.351 323.012 220.806C323.012 216.355 304.318 203.181 305.387 213.862C306.455 224.544 304.853 235.76 304.853 235.76L280.719 248.677" fill="black"/>
<path d="M304.853 212.794L306.555 220.005L316.069 224.544H324.08L327.819 207.453C327.819 207.453 321.218 206.057 317.842 207.823C314.466 209.59 306.539 210.012 306.539 210.012L304.853 212.794Z" fill="#FF6584"/>
<path d="M302.037 140.904C302.037 140.904 302.722 143.185 298.843 145.239C294.965 147.292 293.824 155.049 298.387 157.331C302.95 159.613 304.319 162.579 302.037 164.632C299.756 166.685 295.649 172.161 301.125 173.53C306.601 174.899 307.285 177.637 305.688 178.778C304.091 179.919 309.339 176.724 309.339 176.724C309.339 176.724 310.251 182.2 315.042 180.831C319.834 179.462 324.614 154.578 319.273 148.169C314.307 142.21 302.037 140.904 302.037 140.904Z" fill="#2F2E41"/>
<path d="M300.58 138.555C300.581 135.213 321.357 138.882 325.644 143.549C328.613 146.781 333.123 151.643 329.344 155.071C325.565 158.498 325.046 161.723 327.797 163.085C330.548 164.448 335.979 168.613 331.075 171.408C326.171 174.203 326.25 177.024 328.096 177.692C329.941 178.36 324.027 176.698 324.027 176.698C324.027 176.698 324.624 182.218 319.641 182.191C314.658 182.165 300.363 154.78 303.778 147.168C306.953 140.09 300.58 138.555 300.58 138.555Z" fill="#2F2E41"/>
<path d="M302.746 137.823C289.373 137.017 288.031 147.084 288.031 147.084C288.123 152.909 297.374 150.071 299.944 150.939C303.044 148.709 309.019 144.49 313.292 141.479C310.19 139.294 306.535 138.027 302.746 137.823Z" fill="#2F2E41"/>
<path d="M197.103 119.862H186.224L238.091 181.82V168.824L197.103 119.862Z" fill="#00BFA6"/>
<path d="M259.917 358.356L252.384 366.205L418.938 377.527L409.562 368.529L259.917 358.356Z" fill="#00BFA6"/>
<path d="M425.048 314.008C425.048 329.642 415.755 335.1 404.29 335.1C404.025 335.1 403.759 335.096 403.496 335.091C402.965 335.079 402.437 335.054 401.918 335.018C391.57 334.286 383.533 328.547 383.533 314.008C383.533 298.965 402.756 279.98 404.204 278.572L404.206 278.57C404.262 278.515 404.29 278.488 404.29 278.488C404.29 278.488 425.048 298.376 425.048 314.008Z" fill="#00BFA6"/>
<path d="M403.534 332.708L411.127 322.101L403.515 333.874L403.496 335.091C402.965 335.079 402.437 335.054 401.918 335.018L402.736 319.379L402.73 319.256L402.743 319.235L402.821 317.757L395.191 305.955L402.844 316.648L402.864 316.962L403.481 305.145L396.949 292.95L403.561 303.072L404.205 278.572L404.207 278.488V278.57L404.1 297.889L410.603 290.23L404.073 299.553L403.901 310.134L409.974 299.979L403.876 311.691L403.781 317.573L412.594 303.439L403.746 319.625L403.534 332.708Z" fill="#3F3D56"/>
</g>
<defs>
<clipPath id="clip0_67_331">
<rect width="535.162" height="404" fill="white" transform="translate(0.418945)"/>
</clipPath>
</defs>
</svg>
