<svg width="974" height="1622" viewBox="0 0 974 1622" fill="none" xmlns="http://www.w3.org/2000/svg">
<path opacity="0.025641" d="M578.923 903.119C646.807 878.32 645.498 856.12 611.615 809.874C537.542 748.143 538.944 726.894 642.929 720.56C719.911 674.664 755.709 649.58 679.166 617.204C620.849 532.5 575.258 478.983 723.478 490.817C813.86 434.821 803.863 404.41 772.714 350.387C683.072 311.336 703.35 278.541 822.934 207.149C918.571 119.562 923.64 96.901 862.322 94.8049" stroke="#C72EAE" stroke-width="1.07742"/>
<path opacity="0.0512821" d="M583.452 908.069C653.191 889.385 653.801 867.202 624.045 818.253C555.599 750.378 558.826 729.379 662.926 732.224C743.544 693.368 781.356 671.581 707.921 632.669C657.146 543.343 616.356 486.136 762.942 510.93C857.775 463.213 850.441 432.104 824.076 375.664C738.171 328.965 761.191 298.148 886.433 237.694C989.222 159.036 996.223 136.955 935.34 129.481" stroke="#C72EAE" stroke-width="1.07742"/>
<path opacity="0.0769231" d="M587.38 912.748C658.427 900.313 660.943 878.313 635.526 827.026C573.215 753.518 578.235 732.925 681.641 744.92C765.255 713.388 804.778 695.057 735.008 649.904C692.137 556.624 656.445 496.158 800.265 533.715C898.795 494.626 894.169 463.052 872.774 404.617C791.258 350.624 816.83 322.013 946.733 272.937C1055.85 203.786 1064.72 182.45 1004.74 169.659" stroke="#C72EAE" stroke-width="1.07742"/>
<path opacity="0.102564" d="M590.734 917.103C662.53 911.003 666.925 889.348 646.029 836.109C590.314 757.519 597.081 737.484 698.992 758.529C784.938 734.547 825.859 719.803 760.282 668.752C725.618 572.216 695.282 508.942 835.229 558.97C936.674 528.787 934.782 496.982 918.504 436.989C841.993 376.112 869.909 349.916 1003.44 312.57C1118.01 253.428 1128.67 232.994 1070.06 214.985" stroke="#C72EAE" stroke-width="1.07742"/>
<path opacity="0.128205" d="M593.545 921.088C665.526 921.358 671.759 900.207 655.532 845.412C606.825 762.331 615.28 743.001 714.904 772.927C802.505 756.66 844.499 745.607 783.612 689.044C757.399 589.972 732.636 524.363 867.63 586.471C971.189 565.405 972.036 533.605 960.984 472.501C890.059 405.201 920.092 381.61 1056.2 356.251C1175.31 307.54 1187.67 288.158 1130.89 265.074" stroke="#C72EAE" stroke-width="1.07742"/>
<path opacity="0.153846" d="M595.846 924.656C667.45 931.28 675.466 910.79 664.02 854.846C622.68 767.897 632.752 749.414 729.319 787.981C817.884 779.534 860.619 772.246 804.885 710.602C787.3 609.731 768.288 542.276 897.289 615.981C1002.15 604.169 1005.72 572.609 999.961 510.847C935.159 437.634 967.068 416.818 1104.69 403.61C1227.38 365.669 1241.35 347.479 1186.82 319.502" stroke="#C72EAE" stroke-width="1.07742"/>
<path opacity="0.179487" d="M597.675 927.763C668.342 940.677 678.076 920.997 671.487 864.322C637.819 774.156 649.424 756.655 742.186 803.556C831.02 802.972 874.16 799.495 824.001 733.236C815.159 631.315 802.032 562.518 924.046 647.247C1029.38 644.753 1035.64 613.667 1035.21 551.704C977.02 473.134 1010.55 455.239 1148.59 454.25C1273.91 427.333 1289.37 410.468 1237.52 377.815" stroke="#C72EAE" stroke-width="1.07742"/>
<path opacity="0.205128" d="M599.076 930.371C668.255 949.461 679.625 930.735 677.935 873.748C652.185 781.04 665.23 764.647 753.469 819.514C841.876 826.775 885.083 827.122 840.879 756.752C840.831 654.536 833.677 584.908 947.766 680.004C1052.74 686.821 1061.64 656.435 1066.53 594.73C1015.4 511.398 1050.28 496.549 1187.67 507.75C1314.62 492.024 1331.45 476.604 1282.68 439.53" stroke="#C72EAE" stroke-width="1.07742"/>
<path opacity="0.230769" d="M600.092 932.443C667.246 957.55 680.16 939.911 683.374 883.036C665.73 788.479 680.109 773.311 763.143 835.711C850.434 850.737 893.37 854.895 855.455 780.946C864.186 679.192 863.052 609.251 968.337 713.978C1072.14 730.023 1083.6 700.56 1093.76 639.568C1050.07 552.106 1086.04 540.402 1221.69 563.671C1349.29 559.215 1367.34 545.35 1322.03 504.143" stroke="#C72EAE" stroke-width="1.07742"/>
<path opacity="0.25641" d="M600.772 933.95C665.379 964.863 679.736 948.439 687.82 892.096C678.409 796.397 694.009 782.563 771.198 852.006C856.692 874.657 899.022 882.58 867.685 805.613C885.114 705.074 890.001 635.338 985.673 748.883C1087.5 774.004 1101.42 745.679 1116.77 685.849C1080.85 594.92 1117.62 586.436 1250.49 621.555C1377.73 628.362 1396.87 616.147 1355.37 571.128" stroke="#C72EAE" stroke-width="1.07742"/>
<path opacity="0.282051" d="M601.167 934.862C662.726 971.329 678.412 956.238 691.301 900.841C690.187 804.717 706.886 792.313 777.634 868.255C860.667 898.332 902.063 909.945 877.541 830.545C903.525 731.96 914.388 662.947 999.711 784.432C1098.77 818.405 1115.04 791.424 1135.45 733.195C1107.58 639.488 1144.86 634.273 1273.91 680.934C1399.81 698.905 1419.89 688.426 1382.51 639.945" stroke="#C72EAE" stroke-width="1.07742"/>
<path opacity="0.307692" d="M601.329 935.159C659.366 976.883 676.257 963.23 693.847 909.19C701.034 813.357 718.701 802.469 782.464 884.316C862.395 921.562 902.535 936.762 885.015 855.53C919.345 759.626 936.097 691.847 1010.42 820.331C1105.94 862.865 1124.44 837.422 1149.75 781.221C1130.13 685.445 1167.63 683.525 1291.87 741.329C1415.45 770.281 1436.31 761.607 1403.34 710.04" stroke="#C72EAE" stroke-width="1.07742"/>
<path opacity="0.333333" d="M601.313 934.821C655.38 981.466 673.347 969.347 695.5 917.06C710.929 822.234 729.427 812.937 785.715 900.048C861.926 944.15 900.502 962.808 890.115 880.361C932.525 787.842 955.033 721.797 1017.78 856.287C1109.02 907.022 1129.61 883.3 1159.63 829.538C1148.41 732.421 1185.84 733.793 1304.31 802.255C1424.61 841.921 1446.09 835.108 1417.79 780.856" stroke="#C72EAE" stroke-width="1.07742"/>
<path opacity="0.358974" d="M601.175 933.836C650.857 985.027 669.761 974.525 696.306 924.376C719.857 831.264 739.044 823.62 787.425 915.315C859.332 965.909 896.046 987.866 892.871 904.829C943.033 816.373 971.123 752.55 1021.81 892.007C1108.08 950.522 1130.6 928.691 1165.08 877.759C1162.36 780.036 1199.43 784.675 1311.22 863.227C1427.32 913.255 1449.26 908.347 1425.83 851.829" stroke="#C72EAE" stroke-width="1.07742"/>
<path opacity="0.384615" d="M600.972 932.196C645.889 987.524 665.584 978.709 696.319 931.066C727.811 840.361 747.54 834.419 787.644 929.984C854.696 986.654 889.268 1011.73 893.329 928.731C950.858 844.986 984.315 783.855 1022.56 927.2C1103.2 993.013 1127.47 973.229 1166.16 925.498C1171.94 827.909 1208.38 835.762 1312.62 923.762C1423.64 983.722 1445.86 980.744 1427.5 922.4" stroke="#C72EAE" stroke-width="1.07742"/>
<path opacity="0.410256" d="M600.761 929.897C640.57 988.92 660.908 981.852 695.597 937.063C734.791 849.442 754.912 845.238 786.434 943.926C848.119 1006.21 880.286 1034.2 891.553 951.869C956.01 873.445 994.58 815.456 1020.1 961.581C1094.48 1034.16 1120.32 1016.56 1162.92 972.373C1177.17 875.658 1212.69 886.651 1308.6 983.38C1413.68 1052.77 1436.02 1051.73 1422.86 992.014" stroke="#C72EAE" stroke-width="1.07742"/>
<path opacity="0.435897" d="M600.6 926.942C635 989.191 655.826 983.915 694.207 942.306C740.805 858.42 761.165 855.978 783.866 957.022C839.719 1024.42 869.237 1055.09 887.623 974.052C958.52 901.519 1001.91 847.098 1014.5 994.876C1082.07 1073.63 1109.28 1058.34 1155.47 1018.01C1178.08 922.907 1212.41 936.938 1299.27 1041.62C1397.62 1119.85 1419.91 1120.76 1412.05 1060.13" stroke="#C72EAE" stroke-width="1.07742"/>
<path opacity="0.461538" d="M600.546 923.337C629.278 988.319 650.435 984.865 692.218 946.739C745.868 867.213 766.314 866.542 780.024 969.155C829.623 1041.12 856.27 1074.22 881.636 995.095C958.439 928.98 1006.32 878.526 1005.89 1026.82C1066.14 1111.1 1094.52 1098.23 1143.95 1062.06C1174.74 969.281 1207.63 986.227 1284.77 1098.01C1375.66 1184.45 1397.72 1187.28 1395.22 1126.21" stroke="#C72EAE" stroke-width="1.07742"/>
<path opacity="0.487179" d="M600.654 919.093C623.506 986.294 644.835 984.68 689.704 950.315C750.002 875.739 770.38 876.836 775 980.22C817.976 1056.18 841.552 1091.45 873.706 1014.83C955.836 955.607 1007.85 909.489 994.407 1057.15C1046.89 1146.3 1076.22 1135.92 1128.52 1104.17C1167.27 1014.42 1198.46 1034.13 1265.31 1152.13C1348.05 1246.06 1369.73 1250.79 1372.6 1189.74" stroke="#C72EAE" stroke-width="1.07742"/>
<path opacity="0.512821" d="M600.98 914.228C617.783 983.118 639.125 983.348 686.746 952.99C753.237 883.919 773.395 886.766 768.895 990.118C804.93 1069.46 825.262 1106.62 863.96 1033.08C950.8 981.185 1006.55 939.739 980.208 1085.62C1024.53 1178.92 1054.6 1171.12 1109.37 1144C1155.78 1057.96 1185.05 1080.28 1241.12 1203.54C1315.09 1304.22 1336.23 1310.79 1344.45 1250.25" stroke="#C72EAE" stroke-width="1.07742"/>
<path opacity="0.538462" d="M601.578 908.762C612.213 978.799 633.409 980.863 683.423 954.731C755.607 891.677 775.396 896.245 761.817 998.762C790.651 1080.86 807.59 1119.6 852.538 1049.72C943.438 1005.51 1002.52 969.036 963.473 1112.02C999.317 1208.73 1029.89 1203.54 1086.73 1181.25C1140.44 1099.58 1167.58 1124.32 1212.46 1251.87C1277.13 1358.46 1297.56 1366.83 1311.07 1307.25" stroke="#C72EAE" stroke-width="1.07742"/>
<path opacity="0.564103" d="M602.498 902.723C606.894 973.355 627.787 977.229 679.821 955.511C757.157 898.94 776.43 905.187 753.884 1006.07C775.311 1090.28 788.735 1130.29 839.592 1064.58C933.875 1028.38 995.833 997.149 944.398 1136.13C971.507 1235.48 1002.37 1232.94 1060.85 1215.63C1121.46 1138.94 1146.26 1165.9 1179.63 1296.72C1234.52 1408.39 1254.1 1418.47 1272.79 1360.32" stroke="#C72EAE" stroke-width="1.07742"/>
<path opacity="0.589744" d="M603.789 896.139C601.924 966.813 622.36 972.461 676.027 955.309C757.933 905.64 776.549 913.51 745.218 1011.98C759.091 1097.62 768.908 1138.61 825.289 1077.57C922.25 1049.63 986.627 1023.86 923.201 1157.77C941.387 1258.97 972.303 1259.09 1031.99 1246.88C1099.04 1175.75 1121.32 1204.71 1142.96 1337.77C1187.69 1453.62 1206.27 1465.33 1229.99 1409.06" stroke="#C72EAE" stroke-width="1.07742"/>
<path opacity="0.615385" d="M605.498 889.046C597.398 959.208 617.228 966.58 672.127 954.114C757.99 911.714 775.812 921.141 735.946 1016.44C742.18 1102.84 748.324 1144.46 809.8 1088.56C908.72 1069.07 975.034 1048.95 900.11 1176.76C909.26 1279.01 940.002 1281.78 1000.46 1274.75C1073.44 1209.72 1093.04 1240.45 1102.81 1374.7C1137.07 1493.81 1154.52 1507.05 1183.08 1453.1" stroke="#C72EAE" stroke-width="1.07742"/>
<path opacity="0.641026" d="M607.667 881.482C593.408 950.584 612.486 959.618 668.21 951.922C757.387 917.103 774.287 928.008 726.201 1019.39C724.768 1105.88 727.203 1147.81 793.309 1097.47C893.452 1086.56 961.21 1072.22 875.371 1192.95C875.438 1295.45 905.78 1300.85 966.551 1299.03C1044.91 1240.6 1061.7 1272.84 1059.55 1407.24C1083.12 1528.66 1099.31 1543.33 1132.5 1492.11" stroke="#C72EAE" stroke-width="1.07742"/>
<path opacity="0.666667" d="M610.335 873.488C590.041 940.992 608.23 951.612 664.365 948.737C756.188 921.754 772.043 934.049 716.116 1020.81C707.051 1106.71 705.771 1148.62 776.005 1104.22C876.629 1101.96 945.328 1093.51 849.238 1206.21C840.25 1308.17 869.97 1316.13 930.608 1319.54C1013.75 1268.14 1027.61 1301.65 1013.61 1435.13C1026.33 1557.91 1041.15 1573.89 1078.7 1525.79" stroke="#C72EAE" stroke-width="1.07742"/>
<path opacity="0.692308" d="M613.539 865.111C587.38 930.49 604.547 942.611 660.679 944.569C754.461 925.62 769.158 939.205 705.83 1020.68C689.226 1105.31 684.253 1146.87 758.082 1108.75C858.443 1115.14 927.571 1112.63 821.976 1216.45C804.031 1317.06 832.911 1327.53 892.97 1336.12C980.267 1292.15 991.107 1326.66 965.383 1458.18C967.215 1581.35 980.551 1598.51 1022.18 1553.91" stroke="#C72EAE" stroke-width="1.07742"/>
<path opacity="0.717949" d="M617.309 856.397C585.502 919.144 601.525 932.669 657.237 939.439C752.277 928.659 765.712 943.428 695.481 1018.98C671.489 1101.68 662.874 1142.57 739.739 1111.03C839.096 1126 908.141 1129.45 793.858 1223.58C767.124 1322.06 794.954 1334.95 853.991 1348.65C944.78 1312.44 952.53 1347.67 915.326 1476.21C906.292 1598.82 918.057 1617.02 963.432 1576.26" stroke="#C72EAE" stroke-width="1.07742"/>
<path opacity="0.74359" d="M621.672 847.397C584.477 907.027 599.242 921.849 654.123 933.373C749.712 930.838 761.79 946.674 685.206 1015.72C654.037 1095.86 641.859 1135.76 721.176 1111.02C818.798 1134.45 887.248 1143.82 765.162 1227.55C729.874 1323.13 756.452 1338.33 814.034 1357.03C907.628 1328.86 912.244 1364.55 863.884 1489.1C844.097 1610.19 854.21 1629.3 902.982 1592.69" stroke="#C72EAE" stroke-width="1.07742"/>
<path opacity="0.769231" d="M626.652 838.166C584.37 894.216 597.774 910.219 651.42 926.404C746.843 932.129 757.481 948.908 675.143 1010.92C637.061 1087.87 621.429 1126.48 702.597 1108.73C797.764 1140.43 865.112 1155.65 736.168 1228.33C692.628 1320.26 717.763 1337.67 773.469 1361.22C869.157 1341.29 870.619 1377.16 811.516 1496.76C781.173 1615.39 789.567 1635.25 841.357 1603.08" stroke="#C72EAE" stroke-width="1.07742"/>
<path opacity="0.794872" d="M632.265 828.756C585.238 880.795 597.187 897.855 649.203 918.575C743.748 932.512 752.874 950.103 665.426 1004.61C620.75 1077.78 601.796 1114.78 684.2 1104.16C776.213 1143.89 841.963 1164.84 707.157 1225.91C655.732 1313.49 679.242 1332.96 732.665 1361.18C829.723 1349.64 828.037 1385.41 758.684 1499.15C718.065 1614.4 724.685 1634.86 779.09 1607.36" stroke="#C72EAE" stroke-width="1.07742"/>
<path opacity="0.820513" d="M638.527 819.224C587.131 866.852 597.542 884.838 647.547 909.931C740.509 931.972 748.062 950.241 656.187 996.814C605.287 1065.64 583.171 1100.77 666.185 1097.36C754.371 1144.8 818.036 1171.31 678.411 1220.3C619.528 1302.87 641.245 1324.25 691.996 1356.91C789.688 1353.86 784.881 1389.25 705.853 1496.25C655.316 1607.24 660.122 1628.14 716.72 1605.54" stroke="#C72EAE" stroke-width="1.07742"/>
<path opacity="0.846154" d="M645.443 809.627C590.091 852.48 598.894 871.253 646.52 900.529C737.207 930.503 743.138 949.309 647.552 987.597C590.845 1051.55 565.751 1084.53 648.746 1088.35C732.459 1143.16 793.572 1175.02 650.207 1211.56C584.349 1288.48 604.119 1311.61 651.829 1348.46C749.414 1353.93 741.54 1388.67 653.484 1488.1C593.463 1593.98 596.428 1615.16 654.782 1597.62" stroke="#C72EAE" stroke-width="1.07742"/>
<path opacity="0.871795" d="M653.018 800.022C594.15 837.774 601.288 857.192 646.187 890.426C733.923 928.106 738.196 947.306 639.644 977.017C577.592 1035.62 549.726 1066.19 632.073 1077.22C710.703 1138.96 768.812 1175.94 622.815 1199.76C550.519 1270.43 568.204 1295.13 612.527 1335.91C709.266 1349.83 698.402 1383.66 602.034 1474.78C533.036 1574.73 534.148 1596.04 593.805 1583.7" stroke="#C72EAE" stroke-width="1.07742"/>
<path opacity="0.897436" d="M661.249 790.467C599.334 822.831 604.76 842.746 646.606 879.687C730.737 924.787 733.329 944.237 632.579 965.145C565.683 1017.94 535.273 1045.89 616.348 1064.04C689.322 1132.24 744.001 1174.06 596.499 1184.97C518.352 1248.87 533.828 1274.96 574.445 1319.34C669.605 1341.63 655.848 1374.29 551.95 1456.39C474.548 1549.67 473.809 1570.94 534.307 1563.89" stroke="#C72EAE" stroke-width="1.07742"/>
<path opacity="0.923077" d="M670.131 781.019C605.659 807.753 609.342 828.015 647.828 868.384C727.729 920.563 728.629 940.115 626.465 952.065C555.265 998.666 522.557 1023.76 601.744 1048.9C668.533 1123.06 719.382 1169.4 571.514 1167.32C488.146 1223.97 501.305 1251.24 537.925 1298.89C630.784 1329.37 614.257 1360.62 503.664 1433.1C418.498 1519 415.922 1540.06 476.793 1538.36" stroke="#C72EAE" stroke-width="1.07742"/>
<path opacity="0.948718" d="M679.651 771.733C613.132 792.638 615.052 813.096 649.9 856.589C724.978 915.454 724.187 934.961 621.404 937.866C546.469 977.922 511.728 999.991 588.427 1031.92C648.549 1111.48 695.195 1161.99 548.102 1146.94C460.183 1195.91 470.936 1224.16 503.296 1274.73C593.152 1313.17 573.995 1342.77 457.595 1405.08C365.36 1482.97 360.978 1503.67 421.75 1507.32" stroke="#C72EAE" stroke-width="1.07742"/>
<path opacity="0.974359" d="M689.792 762.666C621.752 777.589 621.902 798.09 652.861 844.38C722.557 909.488 720.09 928.805 617.486 922.649C539.417 955.865 502.921 974.741 576.55 1013.22C629.572 1097.58 671.675 1151.88 526.492 1123.98C434.725 1164.92 443 1193.94 470.872 1247.05C557.043 1293.16 535.419 1320.89 414.14 1372.57C315.586 1441.86 309.44 1462.05 369.644 1471.02" stroke="#C72EAE" stroke-width="1.07742"/>
<path d="M700.534 753.869C631.508 762.705 629.896 783.097 656.742 831.839C720.539 902.699 716.423 921.684 614.796 906.521C534.213 932.656 496.255 948.202 566.256 992.945C611.798 1081.47 649.051 1139.16 506.899 1098.63C412.015 1131.23 417.76 1160.81 440.947 1216.05C522.78 1269.48 498.867 1295.14 373.676 1335.82C269.599 1396.01 261.744 1415.53 320.915 1429.76" stroke="#C72EAE" stroke-width="1.07742"/>
</svg>
