<svg width="564" height="404" viewBox="0 0 564 404" fill="none" xmlns="http://www.w3.org/2000/svg">
<g clip-path="url(#clip0_152_207)">
<path d="M266.514 399.588H0.00012207V400.746H266.514V399.588Z" fill="#3F3D56"/>
<path d="M67.7483 395.55H75.3256L78.931 366.321H67.7471L67.7483 395.55Z" fill="#FFB8B8"/>
<path d="M89.9404 402.584L66.1245 402.585L66.1241 393.384L80.7384 393.383C83.1788 393.383 85.5193 394.352 87.245 396.078C88.9708 397.804 89.9403 400.144 89.9404 402.584Z" fill="#2F2E41"/>
<path d="M27.4308 394.092L34.9426 395.093L42.3796 366.598L31.2939 365.12L27.4308 394.092Z" fill="#FFB8B8"/>
<path d="M48.4984 404L24.8914 400.852L26.1075 391.732L40.5936 393.663C43.0126 393.986 45.2044 395.256 46.6869 397.194C48.1693 399.133 48.8209 401.581 48.4984 404Z" fill="#2F2E41"/>
<path d="M38.1962 274.832L80.8452 276.687L78.9909 384.854L67.8651 383.618L59.2117 310.064L38.8143 388.563L27.6885 386.709L38.1962 274.832Z" fill="#2F2E41"/>
<path d="M66.6292 210.55L51.7947 207.519L42.5232 275.45C42.5232 275.45 69.7197 293.375 78.3731 274.832L66.6292 210.55Z" fill="#00BFA6"/>
<path d="M60.1585 202.572C68.5429 202.572 75.3397 195.775 75.3397 187.391C75.3397 179.006 68.5429 172.209 60.1585 172.209C51.7742 172.209 44.9773 179.006 44.9773 187.391C44.9773 195.775 51.7742 202.572 60.1585 202.572Z" fill="#FFB8B8"/>
<path d="M51.7946 206.841L30.1611 213.64C30.1611 213.64 40.6688 266.179 23.3619 293.375C23.3619 293.375 44.9955 316.245 54.267 264.943C54.267 264.943 61.6842 223.53 51.7946 206.841Z" fill="#2F2E41"/>
<path d="M66.6292 210.55L82.6998 220.44C82.6998 220.44 91.3532 292.757 82.6998 299.556C74.0464 306.356 66.6292 210.55 66.6292 210.55Z" fill="#2F2E41"/>
<path d="M89.3812 310.044C88.7226 309.418 88.2092 308.655 87.8772 307.809C87.5452 306.963 87.4028 306.055 87.4598 305.148C87.5169 304.241 87.7721 303.358 88.2074 302.56C88.6428 301.763 89.2477 301.07 89.9797 300.532L83.4459 279.432L94.4683 282.634L98.983 302.179C99.8061 303.469 100.128 305.016 99.8866 306.526C99.6455 308.037 98.8587 309.407 97.6751 310.376C96.4916 311.346 94.9936 311.847 93.4649 311.786C91.9363 311.725 90.4833 311.105 89.3812 310.044Z" fill="#FFB8B8"/>
<path d="M33.8609 303.942C33.1275 303.405 32.5207 302.715 32.0832 301.918C31.6457 301.122 31.3881 300.239 31.3286 299.332C31.269 298.426 31.4091 297.517 31.7388 296.67C32.0685 295.824 32.5798 295.059 33.2368 294.432L24.0558 274.342L35.3973 276.107L42.3769 294.913C43.3584 296.087 43.8752 297.58 43.8295 299.109C43.7839 300.638 43.1789 302.097 42.1291 303.21C41.0794 304.323 39.6579 305.012 38.134 305.147C36.6102 305.282 35.0897 304.853 33.8609 303.942Z" fill="#FFB8B8"/>
<path d="M35.724 214.258L30.161 213.64L15.9447 259.998L30.161 292.139L41.2869 285.34L28.9248 258.762L38.8145 230.329L35.724 214.258Z" fill="#2F2E41"/>
<path d="M79.609 219.821L82.6995 220.439L97.534 292.757L87.6443 295.848L75.9004 253.199L79.609 219.821Z" fill="#2F2E41"/>
<path d="M49.7265 193.624C49.9312 192.132 50.5198 190.719 51.4347 189.523C52.3497 188.328 53.5596 187.39 54.9459 186.802C57.8681 185.604 61.1644 186.11 64.3144 186.339C67.4644 186.568 70.9713 186.369 73.2445 184.177C75.3211 182.174 75.7881 178.85 74.7853 176.144C73.7825 173.439 71.5118 171.339 68.9322 170.046C66.3036 168.841 63.4871 168.096 60.606 167.846C56.3961 167.337 52.073 167.272 47.9699 168.343C43.8668 169.413 44.9247 171.708 42.5202 175.201C40.1157 178.693 39.3954 183.452 41.2286 187.276C42.4553 189.834 44.6535 191.771 46.794 193.634" fill="#2F2E41"/>
<path d="M389.304 361.16L389.304 360.001C391.608 360.001 393.946 359.953 396.256 359.861L396.302 361.019C393.977 361.112 391.623 361.16 389.304 361.16ZM382.308 361.026C379.991 360.936 377.641 360.797 375.322 360.614L375.414 359.459C377.717 359.641 380.052 359.779 382.353 359.868L382.308 361.026ZM403.287 360.599L403.195 359.444C405.495 359.26 407.822 359.026 410.111 358.749L410.251 359.9C407.945 360.178 405.603 360.413 403.287 360.599ZM368.358 359.923C366.048 359.647 363.716 359.32 361.428 358.953L361.611 357.809C363.885 358.174 366.201 358.498 368.496 358.773L368.358 359.923ZM417.18 358.922L416.995 357.778C419.267 357.411 421.568 356.99 423.833 356.53L424.064 357.665C421.784 358.129 419.468 358.552 417.18 358.922ZM354.542 357.704C352.261 357.242 349.964 356.728 347.712 356.177L347.987 355.051C350.224 355.599 352.507 356.109 354.771 356.568L354.542 357.704ZM430.893 356.13L430.616 355.005C432.859 354.453 435.118 353.848 437.331 353.207L437.653 354.32C435.426 354.965 433.151 355.574 430.893 356.13ZM340.949 354.374C338.715 353.729 336.466 353.031 334.265 352.299L334.631 351.199C336.817 351.926 339.051 352.62 341.27 353.261L340.949 354.374ZM444.334 352.236L443.967 351.138C446.154 350.407 448.357 349.621 450.514 348.801L450.926 349.884C448.754 350.709 446.536 351.501 444.334 352.236ZM327.653 349.947C325.479 349.123 323.29 348.242 321.145 347.329L321.599 346.263C323.729 347.17 325.904 348.045 328.064 348.863L327.653 349.947ZM457.399 347.274L456.944 346.208C459.062 345.304 461.189 344.345 463.265 343.357L463.763 344.404C461.673 345.398 459.532 346.363 457.399 347.274ZM314.749 344.45C312.644 343.451 310.534 342.396 308.478 341.315L309.017 340.29C311.06 341.363 313.155 342.411 315.246 343.403L314.749 344.45ZM470.009 341.278L469.469 340.253C471.51 339.179 473.554 338.05 475.545 336.899L476.125 337.901C474.121 339.061 472.063 340.197 470.009 341.278ZM302.34 337.93C300.32 336.762 298.304 335.541 296.345 334.301L296.965 333.322C298.91 334.554 300.914 335.767 302.92 336.927L302.34 337.93ZM482.103 334.28L481.483 333.301C483.425 332.071 485.373 330.781 487.273 329.468L487.931 330.421C486.02 331.743 484.058 333.042 482.103 334.28ZM290.503 330.434C288.587 329.11 286.675 327.732 284.822 326.337L285.518 325.412C287.36 326.797 289.258 328.166 291.161 329.482L290.503 330.434ZM493.602 326.33L492.905 325.404C494.742 324.023 496.582 322.581 498.373 321.117L499.106 322.015C497.303 323.488 495.451 324.939 493.602 326.33ZM279.311 322.016C277.512 320.546 275.718 319.019 273.979 317.478L274.748 316.611C276.475 318.142 278.257 319.659 280.044 321.119L279.311 322.016ZM504.433 317.481L503.665 316.614C505.391 315.084 507.11 313.498 508.774 311.901L509.576 312.737C507.902 314.345 506.171 315.941 504.433 317.481ZM268.834 312.732C267.163 311.127 265.497 309.462 263.885 307.785L264.72 306.981C266.322 308.648 267.976 310.302 269.637 311.896L268.834 312.732ZM514.526 307.789L513.691 306.986C515.288 305.325 516.875 303.606 518.409 301.878L519.275 302.647C517.732 304.387 516.134 306.117 514.526 307.789ZM259.137 302.645C257.593 300.904 256.066 299.112 254.601 297.319L255.498 296.586C256.953 298.367 258.47 300.147 260.004 301.876L259.137 302.645ZM523.816 297.318L522.919 296.585C524.383 294.795 525.828 292.954 527.214 291.113L528.14 291.81C526.745 293.663 525.289 295.516 523.816 297.318ZM250.282 291.819C248.886 289.965 247.508 288.058 246.188 286.15L247.141 285.491C248.452 287.386 249.82 289.28 251.208 291.122L250.282 291.819ZM532.24 286.131L531.287 285.473C532.603 283.569 533.897 281.617 535.131 279.671L536.11 280.291C534.867 282.25 533.565 284.215 532.24 286.131ZM242.326 280.324C241.084 278.366 239.865 276.356 238.701 274.348L239.704 273.768C240.859 275.762 242.071 277.758 243.304 279.703L242.326 280.324ZM539.743 274.299L538.74 273.718C539.9 271.713 541.032 269.662 542.106 267.623L543.131 268.163C542.051 270.216 540.911 272.28 539.743 274.299ZM235.322 268.233C234.242 266.183 233.189 264.082 232.192 261.989L233.239 261.491C234.229 263.57 235.275 265.657 236.347 267.693L235.322 268.233ZM546.269 261.893L545.222 261.395C546.214 259.308 547.178 257.172 548.085 255.044L549.151 255.499C548.238 257.641 547.268 259.792 546.269 261.893ZM229.318 255.627C228.406 253.492 227.527 251.315 226.705 249.155L227.788 248.743C228.604 250.888 229.477 253.051 230.384 255.171L229.318 255.627ZM551.773 248.992L550.69 248.581C551.511 246.413 552.299 244.204 553.029 242.015L554.128 242.381C553.393 244.586 552.6 246.809 551.773 248.992ZM224.349 242.565C223.611 240.362 222.909 238.114 222.262 235.884L223.375 235.562C224.017 237.776 224.715 240.009 225.448 242.197L224.349 242.565ZM556.208 235.697L555.095 235.376C555.734 233.165 556.338 230.906 556.889 228.66L558.014 228.936C557.459 231.197 556.851 233.472 556.208 235.697ZM220.448 229.125C219.891 226.868 219.374 224.572 218.909 222.298L220.045 222.066C220.506 224.324 221.02 226.606 221.573 228.847L220.448 229.125ZM559.545 222.108L558.409 221.877C558.867 219.62 559.286 217.319 559.654 215.038L560.798 215.223C560.428 217.519 560.006 219.835 559.545 222.108ZM217.648 215.414C217.277 213.126 216.946 210.795 216.666 208.485L217.817 208.346C218.095 210.641 218.423 212.956 218.792 215.228L217.648 215.414ZM561.772 208.291L560.621 208.153C560.897 205.859 561.129 203.532 561.311 201.237L562.467 201.328C562.283 203.64 562.049 205.982 561.772 208.291ZM215.964 201.523C215.777 199.208 215.634 196.858 215.54 194.537L216.698 194.49C216.791 196.795 216.933 199.13 217.119 201.429L215.964 201.523ZM562.883 194.343L561.726 194.298C561.816 191.989 561.863 189.65 561.863 187.347L561.862 186.963H563.021L563.021 187.345C563.021 189.665 562.975 192.019 562.883 194.343ZM216.553 187.539H215.394L215.394 187.345C215.394 185.084 215.438 182.795 215.525 180.543L216.682 180.588C216.596 182.825 216.553 185.099 216.553 187.347L216.553 187.539ZM561.709 180.014C561.614 177.713 561.47 175.379 561.281 173.075L562.436 172.981C562.626 175.3 562.771 177.65 562.867 179.966L561.709 180.014ZM217.088 173.648L215.933 173.558C216.115 171.237 216.347 168.894 216.621 166.593L217.771 166.73C217.499 169.016 217.269 171.344 217.088 173.648ZM560.576 166.16C560.296 163.874 559.966 161.559 559.593 159.278L560.737 159.091C561.112 161.387 561.445 163.718 561.726 166.019L560.576 166.16ZM218.731 159.846L217.587 159.662C217.954 157.368 218.373 155.051 218.833 152.776L219.968 153.005C219.512 155.265 219.096 157.566 218.731 159.846ZM558.332 152.442C557.867 150.177 557.35 147.897 556.796 145.662L557.921 145.383C558.479 147.633 558.999 149.929 559.467 152.209L558.332 152.442ZM221.481 146.22L220.355 145.945C220.906 143.69 221.512 141.414 222.155 139.181L223.268 139.501C222.63 141.72 222.028 143.98 221.481 146.22ZM554.988 138.95C554.343 136.737 553.643 134.505 552.908 132.317L554.006 131.948C554.747 134.151 555.451 136.398 556.1 138.626L554.988 138.95ZM225.326 132.861L224.226 132.496C224.96 130.29 225.749 128.065 226.574 125.883L227.658 126.292C226.839 128.46 226.054 130.67 225.326 132.861ZM550.56 125.773C549.736 123.618 548.861 121.456 547.956 119.348L549.021 118.892C549.932 121.014 550.814 123.19 551.643 125.36L550.56 125.773ZM230.255 119.826L229.188 119.372C230.099 117.231 231.066 115.079 232.064 112.976L233.111 113.472C232.12 115.561 231.159 117.699 230.255 119.826ZM545.095 113.031C544.103 110.954 543.055 108.868 541.98 106.832L543.004 106.291C544.087 108.341 545.142 110.441 546.14 112.532L545.095 113.031ZM236.222 107.24L235.195 106.702C236.275 104.644 237.413 102.578 238.577 100.562L239.58 101.142C238.424 103.144 237.294 105.196 236.222 107.24ZM538.616 100.762C537.457 98.7678 536.244 96.7722 535.009 94.8306L535.987 94.2088C537.23 96.1634 538.451 98.1725 539.618 100.18L538.616 100.762ZM243.182 95.1851L242.203 94.5656C243.446 92.6002 244.746 90.6338 246.066 88.7211L247.019 89.3794C245.708 91.2794 244.417 93.2325 243.182 95.1851ZM531.166 89.0467C529.851 87.1527 528.481 85.2596 527.093 83.4207L528.018 82.7225C529.415 84.5738 530.795 86.4794 532.117 88.3865L531.166 89.0467ZM251.086 83.7339L250.16 83.038C251.556 81.1793 253.009 79.3246 254.478 77.5248L255.375 78.2575C253.917 80.0451 252.474 81.8877 251.086 83.7339ZM522.797 77.9608C521.336 76.1776 519.817 74.3996 518.285 72.6762L519.15 71.9061C520.693 73.6411 522.222 75.4311 523.693 77.2263L522.797 77.9608ZM259.88 72.9583L259.013 72.1905C260.551 70.4523 262.147 68.7205 263.756 67.0428L264.592 67.8451C262.994 69.5114 261.409 71.232 259.88 72.9583ZM513.564 67.5747C511.96 65.9109 510.304 64.2594 508.641 62.6655L509.442 61.8287C511.117 63.4333 512.784 65.0959 514.398 66.7707L513.564 67.5747ZM269.504 62.9252L268.701 62.0901C270.373 60.4812 272.101 58.8834 273.838 57.3405L274.608 58.2067C272.882 59.7395 271.165 61.3271 269.504 62.9252ZM503.525 57.9561C501.794 56.4253 500.01 54.9107 498.224 53.4546L498.956 52.5564C500.754 54.0224 502.55 55.5469 504.293 57.0882L503.525 57.9561ZM279.895 53.6973L279.161 52.8011C280.959 51.3286 282.809 49.8747 284.66 48.4795L285.357 49.4046C283.519 50.7905 281.681 52.235 279.895 53.6973ZM492.744 49.1684C490.896 47.781 488.995 46.4138 487.097 45.1045L487.754 44.1506C489.665 45.4686 491.578 46.8449 493.44 48.2416L492.744 49.1684ZM290.986 45.334L290.326 44.3817C292.236 43.058 294.196 41.7575 296.151 40.5162L296.772 41.4944C294.83 42.7273 292.883 44.019 290.986 45.334ZM481.289 41.2698C479.335 40.0358 477.331 38.8253 475.33 37.6719L475.909 36.6682C477.922 37.8292 479.941 39.0479 481.908 40.2901L481.289 41.2698ZM302.706 37.8917L302.124 36.8891C304.128 35.7272 306.184 34.5889 308.236 33.5062L308.777 34.5309C306.739 35.6064 304.696 36.7372 302.706 37.8917ZM469.23 34.3161C467.183 33.2439 465.087 32.1986 462.997 31.2093L463.493 30.162C465.596 31.1578 467.708 32.2102 469.767 33.2898L469.23 34.3161ZM314.977 31.4192L314.479 30.3731C316.568 29.377 318.708 28.4089 320.84 27.4957L321.296 28.5608C319.179 29.4677 317.053 30.4294 314.977 31.4192ZM456.641 28.3568C454.512 27.4524 452.336 26.5802 450.173 25.7638L450.583 24.6797C452.76 25.5015 454.951 26.3799 457.094 27.2903L456.641 28.3568ZM327.723 25.961L327.31 24.878C329.478 24.0514 331.695 23.2576 333.899 22.5184L334.267 23.6172C332.078 24.3512 329.877 25.14 327.723 25.961ZM443.603 23.4349C441.413 22.7087 439.179 22.0176 436.961 21.3808L437.281 20.2673C439.514 20.9084 441.763 21.604 443.967 22.335L443.603 23.4349ZM340.902 21.5401L340.578 20.4277C342.807 19.7793 345.081 19.1677 347.337 18.6095L347.615 19.7343C345.374 20.2888 343.115 20.8965 340.902 21.5401ZM430.242 19.598C428.005 19.0523 425.722 18.5445 423.456 18.0887L423.685 16.9526C425.965 17.4114 428.264 17.9229 430.517 18.472L430.242 19.598ZM354.395 18.203L354.163 17.068C356.435 16.6029 358.75 16.1774 361.046 15.8031L361.233 16.9466C358.952 17.3186 356.652 17.7413 354.395 18.203ZM416.615 16.8552C414.336 16.492 412.02 16.17 409.729 15.899L409.866 14.7482C412.171 15.0212 414.503 15.3451 416.797 15.7112L416.615 16.8552ZM368.115 15.9672L367.974 14.8169C370.279 14.5363 372.622 14.2983 374.937 14.1105L375.031 15.2653C372.731 15.4523 370.404 15.6883 368.115 15.9672ZM402.811 15.2201C400.514 15.041 398.179 14.9058 395.871 14.8183L395.915 13.6602C398.238 13.7484 400.589 13.8845 402.901 14.0647L402.811 15.2201ZM381.97 14.8407L381.922 13.6831C384.239 13.5875 386.593 13.5371 388.919 13.5331L388.921 14.6919C386.61 14.6958 384.272 14.7459 381.97 14.8407Z" fill="#CCCCCC"/>
<path d="M327.831 295.82C389.587 295.82 439.651 245.756 439.651 184C439.651 122.243 389.587 72.1795 327.831 72.1795C266.074 72.1795 216.011 122.243 216.011 184C216.011 245.756 266.074 295.82 327.831 295.82Z" fill="#3F3D56"/>
<path d="M288.144 265.692C320.942 265.692 347.53 229.117 347.53 184C347.53 138.882 320.942 102.307 288.144 102.307C255.345 102.307 228.757 138.882 228.757 184C228.757 229.117 255.345 265.692 288.144 265.692Z" fill="white"/>
<path d="M268.457 227.379C277.611 227.379 285.031 215.706 285.031 201.307C285.031 186.908 277.611 175.235 268.457 175.235C259.304 175.235 251.884 186.908 251.884 201.307C251.884 215.706 259.304 227.379 268.457 227.379Z" fill="#3F3D56"/>
<path d="M547.525 132.561C553.605 132.561 558.533 127.632 558.533 121.553C558.533 115.473 553.605 110.545 547.525 110.545C541.445 110.545 536.517 115.473 536.517 121.553C536.517 127.632 541.445 132.561 547.525 132.561Z" fill="#00BFA6"/>
<path d="M420.366 32.4452C429.326 32.4452 436.589 25.1821 436.589 16.2226C436.589 7.26311 429.326 0 420.366 0C411.407 0 404.144 7.26311 404.144 16.2226C404.144 25.1821 411.407 32.4452 420.366 32.4452Z" fill="#00BFA6"/>
<path d="M409.619 370.342C415.698 370.342 420.627 365.413 420.627 359.334C420.627 353.254 415.698 348.326 409.619 348.326C403.539 348.326 398.611 353.254 398.611 359.334C398.611 365.413 403.539 370.342 409.619 370.342Z" fill="#00BFA6"/>
</g>
<defs>
<clipPath id="clip0_152_207">
<rect width="563.021" height="404" fill="white"/>
</clipPath>
</defs>
</svg>
